<svg version="1.0" xmlns="http://www.w3.org/2000/svg" width="2026.667" height="2026.667" viewBox="0 0 1520 1520"><path d="M1502 481.9c-4.9 1.9-6.6 2.6-12 4.6-1.9.7-6 2.2-9 3.3-3 1.1-8.6 3.1-12.5 4.5-3.8 1.4-11.9 4.4-18 6.7-6 2.3-11.7 4.3-12.5 4.5-.8.2-3.2 1.1-5.2 1.9-2.1.9-4.1 1.7-4.5 1.7-.5.1-1.9.6-3.3 1.1-3.9 1.5-10.4 3.9-11.5 4.2-.5.2-1.7.6-2.5.9-7.7 3.1-24.6 9-25.7 9-.7 0-1.3.4-1.3.9 0 .4-.5.8-1.1.8-1.2 0-33.2 11.5-36.4 13-1.1.6-3.3 1.4-5 1.9-1.6.5-13.6 4.8-26.5 9.6-12.9 4.7-24.3 8.8-25.3 9-.9.2-2.1.6-2.6 1-.5.3-4.7 1.9-9.3 3.6-4.6 1.7-13 4.8-18.8 6.9-24.5 8.9-30.4 11.1-48 17.4-18.5 6.7-24.7 9-28.5 10.8-1.2.5-2.7 1-3.5 1.2-1.4.3-2.4.6-6.7 2.3-1 .3-2 .7-2.3.8-.9.3-4.4 1.7-6.5 2.5-4.3 1.7-33.2 11.9-35.5 12.6-1.4.4-2.7.9-3 1.3-.3.3-4.5 2-9.5 3.6-4.9 1.7-9.2 3.2-9.5 3.5-.3.3-.9.6-1.5.7-1.1.2-11.9 4.1-32.5 11.8-6.9 2.5-13.2 4.7-14.1 4.9-.8.2-3.3 1.2-5.5 2.1-2.1.9-4.3 1.8-4.9 1.9-.5.1-2.7 1-4.9 1.9-2.1.9-4.6 1.7-5.6 1.7-.9 0-2 .3-2.4.7-.4.5-1.1.8-1.4.9-.4 0-1.4.4-2.2.7-2.6 1.1-15.5 5.9-16.5 6.1-.5.2-2.1.7-3.5 1.3-1.4.6-13.5 5-26.9 9.9l-24.5 8.9 273.4.3c150.3.1 273.6-.1 273.9-.4.7-.7.8-200.4.1-200.3-.3 0-2.5.9-5 1.8zM7.8 680.8l-7.8.3V1033h69.5v-75.4l-.1-75.4 51.8.1 51.8.2.1-2.5c.3-12.6 0-63.3-.5-63.7-.3-.3-23.6-.6-51.8-.7l-51.3-.1-.1-33c0-18.2.1-33.5.4-34.2.3-.9 17-1.2 67.5-1.2 37 0 68.4 0 70-.1h2.7v-33c0-25.7-.3-33-1.2-33-7.5-.3-195.3-.4-201-.2zm852.9 35.8c-.4.4-3.3 1.5-6.4 2.6-3.2 1-6.7 2.3-7.8 2.8-2.1 1-18.2 7-20 7.4-1.4.4-3 1-19.5 7.3l-7.5 2.8.1 109c.1 107.5.3 116.9 2.3 127.3 4.9 25 15 39.4 34.4 49.2 4.2 2.2 7.8 3.9 8 3.8.1-.1 2.9.5 6.2 1.5 7.7 2.1 10.5 2.6 18.5 3.4 13.9 1.5 49.3.3 51.3-1.6.4-.4.6-13.8.5-29.7-.3-24.8-.5-28.9-1.8-28.6-3.3.8-25.7.8-30.4.1-6.6-1-12.7-3-14.4-4.6-.8-.7-2.2-1.7-3.1-2.3-2.2-1.1-5.2-7.2-5.9-11.5-.2-1.6-.5-27.4-.5-57.3-.2-53.6-.2-54.2 1.8-54.3 13.9-.4 42.5-.2 42.5.2s1.5.3 3.4-.1 4.6-.5 6-.3l2.6.5v-62.7h-26.7c-14.8.1-27.5-.1-28.4-.3-1.4-.3-1.6-3.9-1.5-32.5 0-28-.2-32.2-1.5-32.5-.8-.1-1.8 0-2.2.4zm-516.9 57.8c-.1.2-3.9.6-8.3 1-7.9.6-9.1.7-17.2 2-7.3 1.2-21.9 6.3-31.6 11.1-19.4 9.5-39.8 27.7-51.8 46-11.9 18.2-18.7 38-20.3 59.4-.1 2-.6 4.2-.9 4.9-.4.6-.3 1.3.3 1.7.6.4.8 1.1.4 1.6-1 1.7-.2 21.4 1.2 28.2.2 1.2.7 3.8 1 5.7.3 1.9 1.5 6.6 2.6 10.5 1.2 3.8 2.3 7.6 2.4 8.2.1.7 2.1 5 4.3 9.6 2.3 4.6 4.1 8.9 4.1 9.5 0 .7.4 1.2.8 1.2.5 0 1.5 1.2 2.3 2.7.8 1.6 1.7 3.2 2.2 3.8.4.5 2.6 3.5 4.9 6.5 5.9 7.8 20.1 21.8 28.3 27.8 11.4 8.5 33.2 18.4 45.5 20.8 13.5 2.5 21 3.1 35.5 2.9 8.8-.2 17.6-.6 19.5-1 1.9-.3 4.4-.8 5.5-1 1.1-.2 2.7-.6 3.5-.9.8-.3 2.9-.8 4.5-1.1 4.3-.9 4.5-.9 10-2.9 36.2-13 67-44.4 79.9-81.4 1.4-4 2.8-8.7 3.1-10.5.4-1.8 1.1-5.2 1.6-7.6 2.7-12.2 2.9-38 .4-50.1-.3-1.4-.7-3.6-1-5-.8-4.4-4.2-15.7-5.4-17.9-.7-1.1-1-2.1-.7-2.1.9 0-6.7-14.5-11.1-21.5-7.3-11.3-18.4-23.8-28.8-32.5-10.3-8.5-29.8-19.4-39.6-22-2.4-.7-5-1.7-5.6-2.2-.7-.6-1.3-.8-1.3-.5 0 .3-1.5.1-3.2-.4-1.8-.5-4.9-1.2-6.8-1.5-1.9-.3-4.2-.7-5-1-.8-.3-6.2-.8-12-1-5.8-.3-11-.7-11.7-.9-.6-.2-1.3-.2-1.5-.1zm15.7 64.2c7.9 1.1 19.1 5.7 26 10.4 4.8 3.3 13 11.3 16.5 15.9 4.5 6 9.8 17.5 11.6 25.3.3 1.3.8 7.6 1 14.1.9 26-8 44.9-28.1 59.6-11.5 8.5-25 12.5-41.5 12.4-5.7 0-14.9-1.2-16.3-2-.4-.2-1.9-.6-3.3-.9-2.7-.5-13.4-5.3-16.8-7.6-16-10.6-26.8-28.4-29.2-48.3-.8-6.4-.7-19.5.2-23.6.3-1.3.7-3.6 1-5 .3-1.5 1.4-5.1 2.5-8 1.1-3 2.3-6.2 2.6-7.2.3-.9.9-1.7 1.4-1.7.5 0 .9-.7.9-1.5 0-1.3 7.4-11.2 10.9-14.5 3.5-3.3 9.9-8 11-8 .6 0 1.1-.4 1.1-.9 0-.8 11.5-5.9 15-6.6.8-.2 1.5-.4 1.5-.5 0-.3 3.8-1 9-1.6 2.8-.3 5.1-.7 5.2-.8.4-.4 13.8.4 17.8 1zm283.2-63.9c-.2.1-2.8.5-5.8.7-3 .3-6.7 1-8.2 1.5-1.5.6-3.1 1-3.5 1-.4-.1-.9 0-1.2.1-.3.1-1.2.3-2 .5-3.8.7-16 6.2-21 9.3-5.2 3.4-19 16.1-19 17.6 0 .4-.7 1.4-1.5 2.2-1.3 1.3-1.5-.2-1.7-12.3l-.3-13.8-31-.1c-17 0-31.5.2-32.1.4-.8.2-1.1 34.4-1.1 125.8V1033H579l.1-72.3c0-39.7.2-73.8.4-75.8.4-3.1 1.8-9.9 2.9-13.4.2-.6.7-2.4 1.1-4 1.4-5.1 6.6-12.7 12.4-18.4 9.8-9.5 23.3-14.1 39.6-13.5 10.1.3 11.2.5 17.3 2.3 9 2.6 18.5 9.6 23 17 5.7 9.2 7.4 16.2 7.7 32.3.2 8.1.6 15.2 1 15.8.3.5.2 1-.2 1-.5 0-.8 1.5-.6 3.2.2 1.8.4 4 .3 4.8 0 .8 0 2.8.1 4.5.1 1.6 0 3.7 0 4.5-.1.8-.1 3.3-.1 5.5v5c0 .5-.1 4.9-.2 9.6 0 4.7.2 9.1.6 9.7.4.7.3 1.2-.1 1.2-1 0-.9 5.3.2 6.9.3.6.2 1.1-.2 1.1-1 0-.9 5.3.2 6.9.3.6.2 1.1-.2 1.1-.5 0-.8 1.5-.6 3.2.2 1.8.4 4 .3 4.8 0 .8 0 2.8.1 4.5.1 1.6 0 3.7 0 4.5-.1.8-.1 3.3-.1 5.5v5c0 .5-.1 4.9-.2 9.6 0 4.7.2 9.1.6 9.7.4.7.3 1.2-.1 1.2-.5 0-.8 1.5-.6 3.2.6 4.9.6 5.2.3 6.3-.1.5-.2 2.5-.1 4.2l.1 3.3h31.9c24.6 0 32-.3 32.3-1.3.8-2 .2-166.7-.6-171.9-1.2-8.5-3.3-17.2-5.6-23.3-1.2-3.3-2.4-6.9-2.7-8-.4-1.1-.9-2.2-1.2-2.5-.3-.3-1.4-2.1-2.3-4-4.1-8.4-7-12.1-17.9-22.9-12.4-12.4-25.8-19.2-45.4-23.1-5.1-1.1-29.1-2.1-29.8-1.3zm422-.1c-.1.1-2.4.5-5.2.8-5.5.8-8.8 1.3-12.2 2.1-1.3.3-3.3.7-4.4 1-1.2.2-4.7 1.2-7.8 2.1-3.1 1-6.1 1.8-6.7 2-4.8.9-25.1 12.4-33.1 18.7-4.1 3.2-19.3 18.9-23 23.7-13.5 17.8-22 38.7-25.1 62-.9 7.1-.9 32.9 0 40 2.4 18 4.8 25.9 12.5 41.5 5.8 11.7 9.2 17.5 10.4 17.5.5 0 .9.7.9 1.5 0 3 30.2 31.5 33.4 31.5.3 0 2.8 1.4 5.5 3 6.3 3.9 22.1 10.3 29.2 11.9 3 .7 6.1 1.5 6.9 1.8 2.3.9 5 1.3 20.5 3 11.3 1.3 33.9.7 43.5-1.1 1.4-.3 4.1-.7 6-1 1.9-.3 6.7-1.5 10.5-2.7 3.9-1.2 7.5-2.2 8-2.4 2-.4 7.2-2.7 14.8-6.5 14.8-7.5 30-20.5 40.9-35.2l2.8-3.6-6.6-4.1c-3.6-2.3-6.8-4.1-7.1-4.1-.3 0-3.9-2-8-4.5-4-2.5-7.8-4.5-8.3-4.5-.6 0-1-.5-1-1 0-.6-.5-1-1.2-1-.6 0-3.2-1.3-5.7-2.9-2.5-1.6-6.7-4-9.4-5.4l-4.7-2.5-6.3 6.2c-5.4 5.5-17.4 13.4-21 14-.6.1-1.6.4-2.2.8-.5.3-2.3.9-4 1.2-1.6.3-4.1.9-5.5 1.3-5.2 1.3-30.5 1.2-37-.2-3.6-.7-6.6-1.4-6.7-1.5-.3-.1-1.7-.5-6.8-2.1-3.8-1.2-10.7-4.6-15-7.5-3.9-2.7-12.5-11.8-13.7-14.6-.7-1.5-1.6-2.8-1.9-2.8-.3 0-1.4-1.9-2.4-4.3-.9-2.3-2.4-5.4-3.2-7-.8-1.5-1.2-2.7-.9-2.7.3 0 .2-1-.3-2.3l-.9-2.4 94 .1c61.3.1 94.6-.2 95.4-.9 2.4-1.8 3.6-26.8 2.1-41.5-.7-6-1.8-12.6-3-17.5-.3-1.1-.8-3.4-1.2-5-2-8.4-9.2-24.8-15.1-34-10.8-16.9-27.9-34.1-41.9-42.1-2.7-1.5-5.2-3.1-5.5-3.4-1.6-1.8-22.5-9.3-29.7-10.6-2.1-.4-4.7-.8-5.8-1.1-6-1.2-11-1.5-23.6-1.7-7.7-.1-14.1-.1-14.2 0zm27.8 57.9c5.5 1 15.6 4.9 21.2 8.2 7 4.1 16.4 14.1 20.1 21.4 3.7 7.4 7.2 17.7 6.6 19.3-.3.8-18.2 1-63.5.9-34.8-.1-63.4-.4-63.6-.6-.7-.7 3.8-12.9 7.1-19.1 3.3-6.5 12.7-16.7 19.1-20.8 4.3-2.9 15.5-8 15.5-7.2 0 .3.6.2 1.3-.3.6-.4 2.1-.9 3.2-1.1 1.1-.1 2.8-.4 3.7-.5 1-.2 2-.5 2.2-.8.7-.7 22.7-.3 27.1.6z"/></svg>