<svg width="218" height="198" viewBox="0 0 218 198" fill="none" xmlns="http://www.w3.org/2000/svg">
<path opacity="0.2" fill-rule="evenodd" clip-rule="evenodd" d="M38.6382 44.3067C37.2574 41.9152 38.0768 38.8573 40.4683 37.4766L90.2615 8.72842C92.653 7.34771 95.7109 8.16708 97.0916 10.5585L107.169 28.0129L153.324 1.36514C155.716 -0.0155656 158.773 0.803806 160.154 3.19527L172.532 24.634C173.568 26.4285 174.47 28.2629 175.242 30.1257L217.305 102.981C218.685 105.373 217.866 108.431 215.475 109.811L65.4036 196.455C63.0121 197.836 59.9542 197.016 58.5735 194.625L9.26252 109.216C8.9145 108.613 8.70626 107.968 8.62774 107.318L1.42296 94.8388C0.0422446 92.4473 0.86162 89.3894 3.25308 88.0087L48.7154 61.761L38.6382 44.3067ZM90.9314 19.8887L98.5086 33.0129L57.3757 56.761L49.7984 43.6368L90.9314 19.8887ZM166.229 34.5152C172.689 50.9002 166.375 69.9028 150.649 78.9826L136.471 87.1679C134.08 88.5486 133.261 91.6065 134.641 93.998C136.022 96.3895 139.08 97.2088 141.471 95.8281L155.649 87.6429C168.139 80.4315 175.979 68.3057 178.133 55.134L206.144 103.651L64.7337 185.295L36.2204 135.908C48.9719 141.139 63.9191 140.603 76.8095 133.161L90.9867 124.975C93.3782 123.595 94.1976 120.537 92.8168 118.145C91.4361 115.754 88.3782 114.935 85.9867 116.315L71.8095 124.5C54.4912 134.499 32.4596 128.596 22.4609 111.278L12.5832 94.1689L153.994 12.5254L158.699 20.6744C158.777 21.3243 158.986 21.9694 159.334 22.5721L166.229 34.5152ZM87.7857 86.6915C85.3942 88.0722 84.5748 91.1302 85.9555 93.5216L94.1408 107.699C95.5215 110.09 98.5794 110.91 100.971 109.529L118.08 99.6513L121.265 105.168L104.156 115.046C101.765 116.427 100.945 119.485 102.326 121.876C103.707 124.268 106.765 125.087 109.156 123.706L115.545 120.017L117.238 122.949C118.619 125.341 121.677 126.16 124.068 124.779C126.459 123.399 127.279 120.341 125.898 117.949L124.205 115.017L130.595 111.329C132.986 109.948 133.806 106.89 132.425 104.498L124.24 90.3212C122.859 87.9297 119.801 87.1104 117.41 88.4911L100.301 98.3687L97.1158 92.8518L114.224 82.9741C116.616 81.5934 117.435 78.5354 116.055 76.144C114.674 73.7525 111.616 72.9331 109.224 74.3138L102.835 78.0028L101.142 75.0712C99.7617 72.6798 96.7038 71.8604 94.3123 73.2411C91.9208 74.6218 91.1015 77.6798 92.4822 80.0712L94.1747 83.0028L87.7857 86.6915Z" fill="#29282C"/>
</svg>
