<svg version="1.0" xmlns="http://www.w3.org/2000/svg" width="933.333" height="933.333" viewBox="0 0 700 700"><path d="M639 202.9c-1.3.8-46.8 17.6-59.5 22.1-2.7.9-14.4 5.2-26 9.4-11.5 4.3-25 9.3-30 11.1-4.9 1.8-20.9 7.6-35.5 13-14.6 5.3-31.4 11.5-37.5 13.7-23.8 8.6-35 7.6 86 7.7l107.1.1-.1-38.7c0-33.7-.2-38.8-1.5-39-.8-.2-2.2.1-3 .6zM54.9 281.7c-.1 2.3-.1 133.5 0 134.8.1.7 5.1 1 13.4 1h13.2l.2-28.3c.1-15.6.4-28.9.6-29.5.3-.9 6.2-1.2 20.3-1.1l19.9.1V333l-3-.1c-1.6-.1-10.8-.1-20.2-.1-15.3-.1-17.3-.2-17.3-1.7-.1-2.7-.1-20.5-.1-22.8l.1-2.3 27.3-.2 27.2-.3.1-12.8.2-12.7H95.9c-38.3 0-40.9.1-41 1.7zM379 298.4l-11.5 4.3-.2 44.9c-.1 32.8.1 46.1 1 49.4 4.3 15.6 13.5 21.1 35 20.7l11.2-.2v-23l-6-.1c-9.6-.1-10.3-.3-13.2-2.8l-2.7-2.4-.1-22.6c-.1-14.9.3-22.6 1-22.7.5 0 5.1-.2 10-.3 5-.2 9.5-.3 10-.4.7-.1 1.1-4.5 1-12l-.1-11.7-9.4-.2c-5.2 0-10.2-.2-11.1-.2-1.3-.1-1.5-1.9-1.5-12.3 0-7-.4-12.3-.9-12.4-.6-.2-6.2 1.6-12.5 4zm-76.7 18.7c-6.8 1.2-14.1 4.9-17.8 9L281 330v-10.7l-12.7.1-12.8.1v48.7c0 26.9.2 48.9.5 48.9 1.9.5 23.2.4 24-.1.5-.3 1-14.2 1.2-31.5.3-27.3.5-31.4 2.1-34.2 3.7-6.9 9.2-10.3 17.4-10.7 9.3-.6 15.2 2.4 18.9 9.6 2 3.8 2.1 5.5 2.2 33.7 0 16.3.1 30.5.1 31.6.1 2 .7 2.1 12.6 2H347v-33.2c0-20.8-.4-35.2-1.1-38.5-4.3-20.3-22.6-32.3-43.6-28.7zm168.2-.4c-13.7 2.1-21.4 5.4-29.6 13-10.8 10-15.9 21.5-16.4 36.3-.5 16.6 3.9 28.4 14.5 39 11 11.1 22.7 15.2 41.5 14.6 11.6-.3 18.8-2.3 26.6-7.2 4.4-2.7 12.9-11.2 12.9-12.7 0-1-17.6-11.7-19.3-11.7-.3 0-2 1.3-3.8 3-4.5 4-10.9 6-19.3 6-8.7-.1-15.4-2.4-20.1-6.9-3.1-2.9-6.5-8.7-6.5-11.1 0-.4 16.4-.8 36.5-.7 20.1 0 36.8-.3 37.2-.6 1.1-1.2 1-14.3-.3-21-3.3-17.4-17.7-33.6-33.9-38.2-4.9-1.4-16-2.4-20-1.8zm15.7 24.2c2.5 1 5.6 2.9 7 4.2 2.6 2.5 6.8 9.9 6.8 12.1 0 1.1-5.1 1.3-24.8 1.3l-24.8.1 1.4-4.3c1.8-5.4 8-11.7 13.5-13.7 6.1-2.1 15.6-2 20.9.3zM174 319.2c-20.4 6.4-34.5 24.8-35.4 46.3-.5 10.2.8 17.4 4.4 25.1 9.8 20.4 30.7 31.8 53.8 29.2 30.2-3.4 50.7-33.1 43.7-63.3-3.8-16.6-16.9-31.3-33-37-7.7-2.8-25.2-2.9-33.5-.3zm27.1 24.3c12.2 6.3 17.7 17.6 14.9 30.8-2.7 13-13.1 21.1-26.9 20.9-14.2-.1-25.1-11.5-25.3-26-.1-12 4.4-20.1 14.2-25.2 6-3.2 17.3-3.4 23.1-.5z"/></svg>