<svg width="25" height="29" viewBox="0 0 25 29" fill="none" xmlns="http://www.w3.org/2000/svg">
<path fill-rule="evenodd" clip-rule="evenodd" d="M15.6586 0.129395C15.597 0.118168 15.5336 0.112305 15.4688 0.112305C15.404 0.112305 15.3405 0.118168 15.2789 0.129395H6.46131C2.95538 0.129395 0 2.98881 0 6.47647V21.6576C0 25.3428 2.82555 28.2625 6.46131 28.2625H17.7221C21.1801 28.2625 24.0354 25.1989 24.0354 21.6576V8.66868C24.0354 8.39431 23.9299 8.13057 23.7409 7.93265L16.6016 0.45617C16.4022 0.247405 16.1268 0.129395 15.839 0.129395H15.6586ZM14.4116 2.25356L6.46127 2.25469C4.10528 2.25469 2.11426 4.18106 2.11426 6.47615V21.6573C2.11426 24.1814 4.0064 26.1366 6.46127 26.1366H17.722C19.9805 26.1366 21.9211 24.0545 21.9211 21.6573L21.9201 10.0078L20.6862 10.0121C20.216 10.0115 19.681 10.0105 19.0862 10.0091C16.592 10.0038 14.5564 8.0384 14.419 5.56433L14.4116 5.29737V2.25356ZM20.7629 7.8833L19.0909 7.88354C17.6736 7.88052 16.5259 6.7236 16.5259 5.29737V3.44625L20.7629 7.8833Z" fill="#BDBDBD"/>
<path d="M7 11.7487H14" stroke="#BDBDBD" stroke-width="2"/>
<path d="M7 15.7487H17" stroke="#BDBDBD" stroke-width="2"/>
</svg>
