<svg width="320" height="320" viewBox="0 0 320 320" fill="none" xmlns="http://www.w3.org/2000/svg">
<path d="M62.4912 139.839H37.4031V152.101H55.9373V163.941H37.4031V190.861H25V128H62.4912V139.839Z" fill="#29282C"/>
<path d="M78.1361 177.26C80.4616 179.586 83.351 180.784 86.8746 180.784C90.3278 180.784 93.2171 179.586 95.6132 177.26C97.9388 174.935 99.1368 171.975 99.1368 168.381C99.1368 164.787 97.9388 161.827 95.6132 159.501C93.2876 157.176 90.3982 155.978 86.8746 155.978C83.4215 155.978 80.5321 157.176 78.1361 159.501C75.881 161.897 74.7534 164.857 74.7534 168.381C74.7534 171.904 75.881 174.864 78.1361 177.26ZM103.717 185.294C99.1368 189.875 93.5695 192.13 86.8746 192.13C80.1798 192.13 74.542 189.875 70.0318 185.294C65.4511 180.713 63.196 175.146 63.196 168.451C63.196 161.827 65.4511 156.189 70.0318 151.679C74.6125 147.098 80.2502 144.772 86.8746 144.772C93.499 144.772 99.1368 147.098 103.717 151.679C108.298 156.259 110.624 161.897 110.624 168.451C110.624 175.005 108.298 180.643 103.717 185.294Z" fill="#29282C"/>
<path d="M141.702 144.702C146.635 144.702 150.722 146.323 153.823 149.635C157.065 153.018 158.686 157.528 158.686 163.307V190.861H147.128V164.787C147.128 161.756 146.353 159.431 144.732 157.88C143.111 156.33 140.997 155.555 138.249 155.555C135.219 155.555 132.823 156.471 131.061 158.303C129.299 160.135 128.383 162.884 128.383 166.689V190.861H116.825V145.971H128.383V151.045C131.131 146.816 135.571 144.702 141.702 144.702Z" fill="#29282C"/>
<path d="M189.553 157.105H179.405V175.78C179.405 176.978 179.616 177.895 180.039 178.529C180.462 179.163 181.096 179.656 181.942 179.938C182.787 180.22 183.844 180.432 185.113 180.432C186.381 180.432 187.861 180.432 189.482 180.291V190.791C185.536 191.284 182.153 191.284 179.405 190.932C176.656 190.509 174.401 189.734 172.71 188.536C171.018 187.338 169.75 185.646 168.975 183.532C168.2 181.418 167.777 178.811 167.777 175.78V138.43L179.334 134.202V145.971H189.482V157.105H189.553Z" fill="#29282C"/>
<path d="M228.735 163.941C228.101 160.911 226.762 158.585 224.718 157.105C222.675 155.625 220.349 154.85 217.601 154.85C214.5 154.85 211.892 155.625 209.919 157.246C207.875 158.796 206.536 161.052 205.902 163.941H228.735ZM207.382 176.415C209.496 179.868 213.231 181.629 218.658 181.629C223.097 181.629 226.41 180.15 228.735 177.119L238.037 182.475C233.598 188.888 227.114 192.059 218.446 192.059C211.047 192.059 205.056 189.804 200.617 185.364C196.107 180.854 193.922 175.216 193.922 168.381C193.922 161.686 196.107 156.048 200.546 151.538C204.916 146.957 210.624 144.702 217.601 144.702C224.225 144.702 229.651 146.957 233.809 151.538C238.108 156.119 240.293 161.756 240.293 168.381C240.293 169.156 240.222 169.931 240.152 170.706C240.081 171.411 240.011 172.116 239.87 172.891C228.524 172.891 217.248 172.891 205.902 172.891C206.255 174.089 206.677 175.216 207.382 176.415Z" fill="#29282C"/>
<path fill-rule="evenodd" clip-rule="evenodd" d="M196.177 128L294.204 92.1298V128H196.177Z" fill="#FF6600"/>
</svg>
