<svg width="174" height="198" viewBox="0 0 174 198" fill="none" xmlns="http://www.w3.org/2000/svg">
<path fill-rule="evenodd" clip-rule="evenodd" d="M2.03109 61.5469C0.357065 62.5134 -0.216498 64.6539 0.75 66.328L75.75 196.232C76.7165 197.906 78.8571 198.479 80.5311 197.513L148.933 158.021C150.607 157.054 151.181 154.914 150.214 153.24C149.248 151.566 147.107 150.992 145.433 151.959L80.0622 189.701L8.56218 65.8591L107.803 8.56226L159.575 98.2339C160.542 99.9079 162.682 100.481 164.356 99.515C166.03 98.5485 166.604 96.4079 165.637 94.7339L112.115 2.03117C111.149 0.357149 109.008 -0.216415 107.334 0.750084L2.03109 61.5469ZM63.5877 125.21C61.9136 126.176 61.3401 128.317 62.3066 129.991C63.2731 131.665 65.4136 132.239 67.0877 131.272L135.19 91.9534C136.864 90.9869 137.437 88.8463 136.471 87.1723C135.504 85.4983 133.364 84.9247 131.69 85.8912L63.5877 125.21ZM69.4082 142.291C68.4417 140.617 69.0153 138.477 70.6893 137.51L138.791 98.1916C140.465 97.2251 142.606 97.7986 143.572 99.4727C144.539 101.147 143.965 103.287 142.291 104.254L74.1893 143.572C72.5153 144.539 70.3747 143.965 69.4082 142.291ZM77.791 149.811C76.1169 150.777 75.5434 152.918 76.5099 154.592C77.4764 156.266 79.6169 156.839 81.291 155.873L131.092 127.12C132.766 126.154 133.34 124.013 132.374 122.339C131.407 120.665 129.266 120.091 127.592 121.058L77.791 149.811ZM150.062 124.568L158.29 138.82L164.314 116.34L150.062 124.568ZM142.249 125.037C141.283 123.363 141.857 121.223 143.531 120.256L168.131 106.053C169.357 105.345 170.889 105.446 172.012 106.307C173.135 107.169 173.628 108.622 173.262 109.99L162.865 148.794C162.498 150.161 161.344 151.173 159.941 151.358C158.537 151.543 157.161 150.864 156.453 149.638L142.249 125.037ZM59.7354 61.0323C58.0614 61.9988 57.4879 64.1394 58.4544 65.8134L65.7292 78.4138C66.6957 80.0878 68.8363 80.6614 70.5103 79.6949L86.0797 70.7059L89.6813 76.9441L83.4412 80.5468C83.4316 80.5523 83.4221 80.5577 83.4125 80.5632C83.403 80.5687 83.3935 80.5743 83.384 80.5799L74.1119 85.9331C72.4379 86.8996 71.8643 89.0402 72.8308 90.7142C73.7973 92.3882 75.9379 92.9618 77.6119 91.9953L83.8815 88.3755L85.7688 91.6444C86.7353 93.3185 88.8759 93.892 90.5499 92.9255C92.2239 91.959 92.7975 89.8185 91.831 88.1444L89.9437 84.8755L96.2124 81.2563C97.8864 80.2898 98.46 78.1492 97.4935 76.4752L90.3919 64.1748C89.4254 62.5008 87.2848 61.9272 85.6108 62.8937L70.0414 71.8827L66.2665 65.3445L72.5361 61.7247L81.8359 56.3555C83.51 55.389 84.0835 53.2484 83.117 51.5744C82.1505 49.9004 80.01 49.3268 78.3359 50.2933L72.0672 53.9126L70.353 50.9435C69.3865 49.2695 67.2459 48.6959 65.5719 49.6624C63.8979 50.6289 63.3243 52.7695 64.2908 54.4435L66.005 57.4126L59.7354 61.0323Z" fill="white" fill-opacity="0.15"/>
</svg>
