<svg width="95" height="35" viewBox="0 0 95 35" fill="none" xmlns="http://www.w3.org/2000/svg">
<path d="M13.1219 16.6984H4.34108V20.9902H10.828V25.134H4.34108V34.5561H0V12.5547H13.1219V16.6984Z" fill="#B2B2B3"/>
<path d="M18.5976 29.7957C19.4115 30.6097 20.4228 31.029 21.6561 31.029C22.8647 31.029 23.8759 30.6097 24.7145 29.7957C25.5285 28.9818 25.9478 27.9458 25.9478 26.6879C25.9478 25.43 25.5285 24.394 24.7145 23.5801C23.9006 22.7661 22.8893 22.3468 21.6561 22.3468C20.4475 22.3468 19.4362 22.7661 18.5976 23.5801C17.8083 24.4187 17.4136 25.4546 17.4136 26.6879C17.4136 27.9212 17.8083 28.9571 18.5976 29.7957ZM27.5511 32.6076C25.9478 34.2108 23.9993 35.0001 21.6561 35.0001C19.3129 35.0001 17.3396 34.2108 15.7611 32.6076C14.1578 31.0043 13.3685 29.0558 13.3685 26.7126C13.3685 24.394 14.1578 22.4208 15.7611 20.8422C17.3643 19.239 19.3375 18.425 21.6561 18.425C23.9746 18.425 25.9478 19.239 27.5511 20.8422C29.1543 22.4455 29.9682 24.4187 29.9682 26.7126C29.9682 29.0064 29.1543 30.9797 27.5511 32.6076Z" fill="#B2B2B3" />
<path d="M40.8456 18.4004C42.5722 18.4004 44.0028 18.9677 45.0881 20.127C46.2227 21.3109 46.79 22.8895 46.79 24.912V34.5561H42.7449V25.43C42.7449 24.3694 42.4735 23.5554 41.9062 23.0128C41.3389 22.4702 40.599 22.1988 39.637 22.1988C38.5764 22.1988 37.7378 22.5195 37.1212 23.1608C36.5045 23.8021 36.1839 24.764 36.1839 26.096V34.5561H32.1388V18.8444H36.1839V20.6203C37.1458 19.1403 38.6998 18.4004 40.8456 18.4004Z" fill="#B2B2B3"/>
<path d="M57.5934 22.7413H54.0416V29.2776C54.0416 29.6969 54.1156 30.0176 54.2636 30.2395C54.4115 30.4615 54.6335 30.6342 54.9295 30.7328C55.2255 30.8315 55.5955 30.9055 56.0395 30.9055C56.4834 30.9055 57.0014 30.9055 57.5687 30.8562V34.5313C56.1874 34.704 55.0035 34.704 54.0416 34.5806C53.0796 34.4326 52.2903 34.1613 51.6984 33.742C51.1064 33.3227 50.6624 32.7307 50.3911 31.9908C50.1198 31.2508 49.9718 30.3382 49.9718 29.2776V16.205L54.0169 14.7251V18.8442H57.5687V22.7413H57.5934Z" fill="#B2B2B3" />
<path d="M71.3072 25.134C71.0852 24.0734 70.6166 23.2594 69.9013 22.7415C69.186 22.2235 68.372 21.9522 67.4101 21.9522C66.3248 21.9522 65.4122 22.2235 64.7216 22.7908C64.0063 23.3334 63.5376 24.1227 63.3157 25.134H71.3072ZM63.8336 29.4998C64.5736 30.7084 65.8808 31.325 67.7801 31.325C69.334 31.325 70.4932 30.807 71.3072 29.7464L74.563 31.621C73.0091 33.8655 70.7399 34.9754 67.7061 34.9754C65.1162 34.9754 63.0197 34.1862 61.4658 32.6322C59.8872 31.0537 59.1226 29.0804 59.1226 26.6879C59.1226 24.3447 59.8872 22.3715 61.4411 20.7929C62.9703 19.1897 64.9682 18.4004 67.4101 18.4004C69.7286 18.4004 71.6278 19.1897 73.0831 20.7929C74.5877 22.3962 75.3523 24.3694 75.3523 26.6879C75.3523 26.9592 75.3276 27.2306 75.303 27.5019C75.2783 27.7485 75.2536 27.9952 75.2043 28.2665C71.2332 28.2665 67.2868 28.2665 63.3157 28.2665C63.439 28.6858 63.587 29.0804 63.8336 29.4998Z" fill="#B2B2B3"/>
<path fill-rule="evenodd" clip-rule="evenodd" d="M59.9119 12.5546L94.2212 0V12.5546H59.9119Z" fill="#B2B2B3"/>
</svg>
