<svg width="95" height="35" viewBox="0 0 95 35" fill="none" xmlns="http://www.w3.org/2000/svg">
<path d="M13.1219 16.6984H4.34108V20.9902H10.828V25.134H4.34108V34.5561H0V12.5547H13.1219V16.6984Z" fill="#29282C"/>
<path d="M18.5976 29.7955C19.4116 30.6094 20.4228 31.0288 21.6561 31.0288C22.8647 31.0288 23.876 30.6094 24.7146 29.7955C25.5285 28.9815 25.9479 27.9456 25.9479 26.6877C25.9479 25.4297 25.5285 24.3938 24.7146 23.5798C23.9006 22.7659 22.8894 22.3466 21.6561 22.3466C20.4475 22.3466 19.4362 22.7659 18.5976 23.5798C17.8083 24.4185 17.4137 25.4544 17.4137 26.6877C17.4137 27.9209 17.8083 28.9569 18.5976 29.7955ZM27.5511 32.6073C25.9479 34.2106 23.9993 34.9999 21.6561 34.9999C19.3129 34.9999 17.3397 34.2106 15.7611 32.6073C14.1579 31.0041 13.3686 29.0555 13.3686 26.7123C13.3686 24.3938 14.1579 22.4206 15.7611 20.842C17.3643 19.2388 19.3376 18.4248 21.6561 18.4248C23.9746 18.4248 25.9479 19.2388 27.5511 20.842C29.1543 22.4452 29.9683 24.4185 29.9683 26.7123C29.9683 29.0062 29.1543 30.9794 27.5511 32.6073Z" fill="#29282C"/>
<path d="M40.8457 18.4004C42.5722 18.4004 44.0028 18.9677 45.0881 20.127C46.2227 21.3109 46.79 22.8895 46.79 24.912V34.5561H42.7449V25.43C42.7449 24.3694 42.4736 23.5554 41.9063 23.0128C41.339 22.4702 40.599 22.1988 39.6371 22.1988C38.5765 22.1988 37.7379 22.5195 37.1212 23.1608C36.5046 23.8021 36.1839 24.764 36.1839 26.096V34.5561H32.1388V18.8444H36.1839V20.6203C37.1459 19.1403 38.6998 18.4004 40.8457 18.4004Z" fill="#29282C"/>
<path d="M57.5934 22.7413H54.0416V29.2776C54.0416 29.6969 54.1156 30.0176 54.2636 30.2395C54.4116 30.4615 54.6335 30.6342 54.9295 30.7328C55.2255 30.8315 55.5955 30.9055 56.0395 30.9055C56.4834 30.9055 57.0014 30.9055 57.5687 30.8562V34.5313C56.1875 34.704 55.0035 34.704 54.0416 34.5806C53.0796 34.4326 52.2904 34.1613 51.6984 33.742C51.1064 33.3227 50.6624 32.7307 50.3911 31.9908C50.1198 31.2508 49.9718 30.3382 49.9718 29.2776V16.205L54.0169 14.7251V18.8442H57.5687V22.7413H57.5934Z" fill="#29282C"/>
<path d="M71.3073 25.134C71.0853 24.0734 70.6166 23.2594 69.9013 22.7415C69.186 22.2235 68.3721 21.9522 67.4101 21.9522C66.3249 21.9522 65.4123 22.2235 64.7216 22.7908C64.0063 23.3334 63.5377 24.1227 63.3157 25.134H71.3073ZM63.8337 29.4998C64.5736 30.7084 65.8809 31.325 67.7801 31.325C69.334 31.325 70.4933 30.807 71.3073 29.7464L74.5631 31.621C73.0092 33.8655 70.74 34.9754 67.7061 34.9754C65.1163 34.9754 63.0197 34.1862 61.4658 32.6322C59.8872 31.0537 59.1226 29.0804 59.1226 26.6879C59.1226 24.3447 59.8872 22.3715 61.4412 20.7929C62.9704 19.1897 64.9683 18.4004 67.4101 18.4004C69.7287 18.4004 71.6279 19.1897 73.0832 20.7929C74.5877 22.3962 75.3524 24.3694 75.3524 26.6879C75.3524 26.9592 75.3277 27.2306 75.303 27.5019C75.2784 27.7485 75.2537 27.9952 75.2044 28.2665C71.2333 28.2665 67.2868 28.2665 63.3157 28.2665C63.439 28.6858 63.587 29.0804 63.8337 29.4998Z" fill="#29282C"/>
<path fill-rule="evenodd" clip-rule="evenodd" d="M59.9119 12.5546L94.2213 0V12.5546H59.9119Z" fill="#FF6600"/>
</svg>
