<svg width="22" height="22" viewBox="0 0 22 22" fill="none" xmlns="http://www.w3.org/2000/svg">
<path d="M21 13.1472C19.3264 13.531 17.5827 13.4835 15.9324 13.0091C14.2822 12.5346 12.7795 11.6488 11.5654 10.4346C10.3512 9.22046 9.46537 7.71779 8.99092 6.06757C8.51646 4.41734 8.46895 2.67364 8.85285 1.00003L8.85272 1C7.09073 1.40645 5.46967 2.27715 4.15784 3.52169C2.84601 4.76624 1.89124 6.33925 1.39266 8.07741C0.894077 9.81558 0.869865 11.6555 1.32254 13.4062C1.77521 15.1569 2.68826 16.7545 3.96688 18.0331C5.24551 19.3117 6.8431 20.2248 8.59378 20.6775C10.3445 21.1301 12.1844 21.1059 13.9226 20.6073C15.6607 20.1088 17.2337 19.154 18.4783 17.8422C19.7228 16.5304 20.5935 14.9093 21 13.1473L21 13.1472Z" stroke="#29282C" stroke-width="2" stroke-linecap="round" stroke-linejoin="round"/>
</svg>
