<svg width="320" height="320" fill="none" xmlns="http://www.w3.org/2000/svg"><path d="M62.491 139.839H37.403v12.262h18.534v11.84H37.403v26.92H25V128h37.491v11.839zm15.645 37.421c2.326 2.326 5.215 3.524 8.739 3.524 3.453 0 6.342-1.198 8.738-3.524 2.326-2.325 3.524-5.285 3.524-8.879 0-3.594-1.198-6.554-3.524-8.88-2.325-2.325-5.215-3.523-8.738-3.523-3.454 0-6.343 1.198-8.739 3.523-2.255 2.396-3.383 5.356-3.383 8.88 0 3.523 1.128 6.483 3.383 8.879zm25.581 8.034c-4.58 4.581-10.147 6.836-16.842 6.836-6.695 0-12.333-2.255-16.843-6.836-4.58-4.581-6.836-10.148-6.836-16.843 0-6.624 2.255-12.262 6.836-16.772 4.58-4.581 10.218-6.907 16.843-6.907 6.624 0 12.262 2.326 16.842 6.907 4.581 4.58 6.907 10.218 6.907 16.772 0 6.554-2.326 12.192-6.907 16.843zm37.985-40.592c4.933 0 9.02 1.621 12.121 4.933 3.242 3.383 4.863 7.893 4.863 13.672v27.554h-11.558v-26.074c0-3.031-.775-5.356-2.396-6.907-1.621-1.55-3.735-2.325-6.483-2.325-3.03 0-5.426.916-7.188 2.748-1.762 1.832-2.678 4.581-2.678 8.386v24.172h-11.558v-44.89h11.558v5.074c2.748-4.229 7.188-6.343 13.319-6.343zm47.851 12.403h-10.148v18.675c0 1.198.211 2.115.634 2.749.423.634 1.057 1.127 1.903 1.409a9.971 9.971 0 003.171.494c1.268 0 2.748 0 4.369-.141v10.5c-3.946.493-7.329.493-10.077.141-2.749-.423-5.004-1.198-6.695-2.396-1.692-1.198-2.96-2.89-3.735-5.004-.775-2.114-1.198-4.721-1.198-7.752v-37.35l11.557-4.228v11.769h10.148v11.134h.071zm39.182 6.836c-.634-3.03-1.973-5.356-4.017-6.836-2.043-1.48-4.369-2.255-7.117-2.255-3.101 0-5.709.775-7.682 2.396-2.044 1.55-3.383 3.806-4.017 6.695h22.833zm-21.353 12.474c2.114 3.453 5.849 5.214 11.276 5.214 4.439 0 7.752-1.479 10.077-4.51l9.302 5.356c-4.439 6.413-10.923 9.584-19.591 9.584-7.399 0-13.39-2.255-17.829-6.695-4.51-4.51-6.695-10.148-6.695-16.983 0-6.695 2.185-12.333 6.624-16.843 4.37-4.581 10.078-6.836 17.055-6.836 6.624 0 12.05 2.255 16.208 6.836 4.299 4.581 6.484 10.218 6.484 16.843 0 .775-.071 1.55-.141 2.325-.071.705-.141 1.41-.282 2.185h-33.968c.353 1.198.775 2.325 1.48 3.524z" fill="#29282C"/><path fill-rule="evenodd" clip-rule="evenodd" d="M196.177 128l98.027-35.87V128h-98.027z" fill="#F60"/></svg>