<svg width="174" height="198" fill="none" xmlns="http://www.w3.org/2000/svg"><path fill-rule="evenodd" clip-rule="evenodd" d="M2.031 61.547A3.5 3.5 0 00.75 66.328l75 129.904a3.5 3.5 0 004.781 1.281l68.402-39.492a3.5 3.5 0 10-3.5-6.062l-65.37 37.742-71.5-123.842 99.24-57.297 51.772 89.672a3.5 3.5 0 006.062-3.5L112.115 2.03a3.5 3.5 0 00-4.781-1.28L2.031 61.546zm61.557 63.663a3.5 3.5 0 103.5 6.062l68.102-39.319a3.5 3.5 0 00-3.5-6.062L63.588 125.21zm5.82 17.081a3.5 3.5 0 011.281-4.781l68.102-39.318a3.5 3.5 0 113.5 6.062l-68.102 39.318a3.5 3.5 0 01-4.78-1.281zm8.383 7.52a3.5 3.5 0 103.5 6.062l49.801-28.753a3.5 3.5 0 10-3.5-6.062l-49.801 28.753zm72.271-25.243l8.228 14.252 6.024-22.48-14.252 8.228zm-7.813.469a3.5 3.5 0 011.282-4.781l24.6-14.203a3.502 3.502 0 015.131 3.937l-10.397 38.804a3.502 3.502 0 01-6.412.844l-14.204-24.601zM59.735 61.032a3.5 3.5 0 00-1.28 4.781l7.274 12.6a3.5 3.5 0 004.781 1.282l15.57-8.99 3.601 6.24-6.24 3.602-.029.016-.028.017-9.272 5.353a3.5 3.5 0 003.5 6.062l6.27-3.62 1.887 3.27a3.5 3.5 0 106.062-3.5l-1.887-3.27 6.268-3.619a3.5 3.5 0 001.281-4.78l-7.101-12.301a3.5 3.5 0 00-4.781-1.281l-15.57 8.989-3.775-6.538 6.27-3.62 9.3-5.37a3.5 3.5 0 10-3.5-6.062l-6.269 3.62-1.714-2.97a3.5 3.5 0 00-6.062 3.5l1.714 2.97-6.27 3.62z" fill="#29282C" fill-opacity=".15"/></svg>