<svg width="95" height="35" fill="none" xmlns="http://www.w3.org/2000/svg"><path d="M13.122 16.698h-8.78v4.292h6.486v4.144H4.341v9.422H0V12.555h13.122v4.143zm5.476 13.098c.814.814 1.825 1.233 3.058 1.233 1.209 0 2.22-.42 3.059-1.233.814-.814 1.233-1.85 1.233-3.108s-.42-2.294-1.233-3.108c-.814-.814-1.826-1.233-3.059-1.233-1.208 0-2.22.42-3.058 1.233-.79.839-1.184 1.875-1.184 3.108s.394 2.27 1.184 3.108zm8.953 2.812C25.948 34.21 24 35 21.656 35c-2.343 0-4.316-.79-5.895-2.392-1.603-1.604-2.393-3.552-2.393-5.895 0-2.319.79-4.292 2.393-5.87 1.603-1.604 3.576-2.418 5.895-2.418 2.319 0 4.292.814 5.895 2.417 1.603 1.604 2.417 3.577 2.417 5.87 0 2.294-.814 4.268-2.417 5.896zM40.846 18.4c1.726 0 3.157.568 4.242 1.727 1.135 1.184 1.702 2.763 1.702 4.785v9.644h-4.045V25.43c0-1.06-.271-1.875-.839-2.417-.567-.543-1.307-.814-2.269-.814-1.06 0-1.9.32-2.516.962-.617.641-.937 1.603-.937 2.935v8.46h-4.045V18.844h4.045v1.776c.962-1.48 2.516-2.22 4.662-2.22zm16.747 4.341h-3.551v6.537c0 .419.074.74.222.962.147.222.37.394.665.493.296.098.666.172 1.11.172.444 0 .962 0 1.53-.049v3.675c-1.382.173-2.566.173-3.527.05-.962-.148-1.752-.42-2.344-.839-.592-.42-1.036-1.011-1.307-1.751-.271-.74-.42-1.653-.42-2.713V16.205l4.046-1.48v4.12h3.552v3.896h.024zm13.714 2.393c-.222-1.06-.69-1.875-1.406-2.393-.715-.517-1.529-.789-2.49-.789-1.086 0-1.999.271-2.69.839-.715.542-1.183 1.332-1.405 2.343h7.991zM63.834 29.5c.74 1.208 2.047 1.825 3.946 1.825 1.554 0 2.713-.518 3.527-1.579l3.256 1.875c-1.554 2.244-3.823 3.354-6.857 3.354-2.59 0-4.686-.789-6.24-2.343-1.579-1.578-2.343-3.552-2.343-5.944 0-2.343.764-4.316 2.318-5.895 1.53-1.603 3.527-2.393 5.97-2.393 2.318 0 4.217.79 5.672 2.393 1.505 1.603 2.27 3.576 2.27 5.895 0 .271-.025.543-.05.814-.025.247-.05.493-.099.765H63.316c.123.419.271.813.518 1.233z" fill="#B2B2B3"/><path fill-rule="evenodd" clip-rule="evenodd" d="M59.912 12.555L94.222 0v12.555h-34.31z" fill="#B2B2B3"/></svg>