<svg width="299" height="18" fill="none" xmlns="http://www.w3.org/2000/svg"><path fill-rule="evenodd" clip-rule="evenodd" d="M290.095 9.913c2.575-3.045 4.63-5.46 8.905-5.46V0c-6.4 0-9.605 3.764-12.425 7.077l-.003.003-.003.003c-2.603 3.057-4.658 5.47-8.932 5.47-4.275 0-6.337-2.414-8.934-5.473C265.874 3.76 262.669 0 256.267 0c-6.4 0-9.605 3.764-12.425 7.077l-.003.003-.003.003c-2.603 3.057-4.657 5.47-8.932 5.47s-6.337-2.414-8.934-5.473l-.007-.007C223.161 3.783 219.994.065 213.701 0a16.684 16.684 0 00-.167 0c-6.288.065-9.455 3.775-12.253 7.053l-.023.027-.009.01c-2.6 3.047-4.662 5.463-8.933 5.463-4.275 0-6.337-2.414-8.941-5.473C180.553 3.76 177.348 0 170.939 0c-6.4 0-9.598 3.755-12.416 7.065l-.013.015-.015.018c-2.597 3.05-4.645 5.455-8.919 5.455-4.282 0-6.336-2.413-8.939-5.47l-.003-.003C137.813 3.76 134.579 0 128.177 0c-6.4 0-9.605 3.764-12.425 7.077l-.004.003-.042.05c-2.563 3.029-4.589 5.423-8.841 5.423-4.274 0-6.329-2.413-8.932-5.47l-.003-.003C95.102 3.76 91.897 0 85.495 0c-6.4 0-9.605 3.764-12.426 7.077l-.003.003-.076.089c-2.597 3.01-4.646 5.385-8.887 5.385-4.281 0-6.336-2.414-8.94-5.471l-.002-.003C52.34 3.76 49.142 0 42.733 0c-6.4 0-9.598 3.755-12.416 7.065l-.013.015-.034.041c-2.588 3.033-4.636 5.432-8.9 5.432-4.281 0-6.336-2.413-8.94-5.47l-.002-.003C9.608 3.76 6.41 0 0 0v4.454c4.265 0 6.32 2.402 8.915 5.436l.02.023c2.828 3.327 6.033 7.08 12.435 7.08 6.4 0 9.605-3.764 12.425-7.077l.004-.003.045-.054c2.583-3.019 4.624-5.405 8.889-5.405s6.306 2.386 8.889 5.405l.045.054c2.829 3.327 6.034 7.08 12.436 7.08 6.4 0 9.605-3.764 12.425-7.077l.003-.003.055-.064c2.578-3.015 4.627-5.41 8.88-5.41 4.281 0 6.336 2.413 8.94 5.471l.001.003c2.822 3.327 6.019 7.08 12.429 7.08 6.4 0 9.597-3.756 12.416-7.066l.012-.014.054-.064c2.579-3.015 4.628-5.41 8.881-5.41 4.281 0 6.336 2.413 8.939 5.471l.002.003c2.822 3.32 6.034 7.08 12.436 7.08 6.4 0 9.605-3.764 12.425-7.077l.003-.003.02-.023c2.595-3.034 4.65-5.436 8.915-5.436 4.275 0 6.337 2.414 8.941 5.473l.007.007c2.827 3.32 6.024 7.073 12.429 7.073 6.407 0 9.612-3.764 12.433-7.077l.003-.003c2.604-3.059 4.666-5.473 8.949-5.473V4.44c4.163.062 6.204 2.453 8.768 5.472 2.828 3.32 6.033 7.08 12.435 7.08 6.4 0 9.605-3.764 12.426-7.077l.003-.003.019-.023c2.595-3.034 4.65-5.436 8.915-5.436 4.276 0 6.337 2.414 8.934 5.459 2.829 3.327 6.063 7.08 12.465 7.08 6.4 0 9.605-3.764 12.425-7.077l.004-.003z" fill="#F99D21"/></svg>