<svg width="17" height="14" viewBox="0 0 17 14" fill="none" xmlns="http://www.w3.org/2000/svg">
<path d="M16.8929 1.62489C16.2647 1.90045 15.5953 2.08311 14.8974 2.1718C15.6154 1.74314 16.1633 1.06953 16.421 0.257617C15.7516 0.656712 15.0125 0.938612 14.2249 1.09593C13.5893 0.419155 12.6834 0 11.6952 0C9.77783 0 8.23424 1.55626 8.23424 3.4641C8.23424 3.73861 8.25747 4.00256 8.31448 4.25385C5.43529 4.11342 2.88763 2.73348 1.17617 0.631373C0.877376 1.14977 0.702112 1.74314 0.702112 2.3819C0.702112 3.5813 1.31976 4.6445 2.24042 5.26003C1.68401 5.24947 1.13816 5.08793 0.675716 4.83348C0.675716 4.84404 0.675716 4.85777 0.675716 4.87149C0.675716 6.55445 1.87617 7.95234 3.45038 8.27436C3.16848 8.35143 2.86124 8.38839 2.54238 8.38839C2.32066 8.38839 2.09683 8.37572 1.88673 8.32926C2.33545 9.70075 3.60875 10.7091 5.12278 10.7418C3.94449 11.6635 2.44842 12.2189 0.828808 12.2189C0.544796 12.2189 0.272398 12.2062 0 12.1713C1.53409 13.1606 3.35219 13.7255 5.31282 13.7255C11.6857 13.7255 15.1698 8.44646 15.1698 3.87059C15.1698 3.7175 15.1646 3.56968 15.1572 3.42293C15.8445 2.93514 16.422 2.32594 16.8929 1.62489Z" fill="white"/>
</svg>
