<svg width="174" height="153" fill="none" xmlns="http://www.w3.org/2000/svg"><g filter="url(#filter0_d_498_93)" stroke="#F60" stroke-width="2.065" stroke-miterlimit="10" stroke-linecap="round" stroke-linejoin="round"><path d="M68.732 62.118H62v24.396h6.732V62.118zm0 2.357h7.307m-7.307 17.089h3.654l6.128 9.665h6.011m-3.654-7.307l3.654 7.307h6.129M87 82.743l3.654 8.486 4.832-2.357m-3.654-8.604l3.654 8.486 4.832-3.654-7.19-13.318-4.832-2.475-3.889 3.89a4.837 4.837 0 01-6.836 0l-1.414-1.415L84.643 62h12.14l8.485 4.832M99.14 81.564h6.128M112 62.118h-6.732v24.396H112V62.118z"/></g><defs><filter id="filter0_d_498_93" x=".967" y=".967" width="172.065" height="151.294" filterUnits="userSpaceOnUse" color-interpolation-filters="sRGB"><feFlood flood-opacity="0" result="BackgroundImageFix"/><feColorMatrix in="SourceAlpha" values="0 0 0 0 0 0 0 0 0 0 0 0 0 0 0 0 0 0 127 0" result="hardAlpha"/><feOffset/><feGaussianBlur stdDeviation="30"/><feComposite in2="hardAlpha" operator="out"/><feColorMatrix values="0 0 0 0 1 0 0 0 0 0.4 0 0 0 0 0 0 0 0 1 0"/><feBlend in2="BackgroundImageFix" result="effect1_dropShadow_498_93"/><feBlend in="SourceGraphic" in2="effect1_dropShadow_498_93" result="shape"/></filter></defs></svg>