<?xml version="1.0" standalone="no"?>
<!DOCTYPE svg PUBLIC "-//W3C//DTD SVG 20010904//EN"
 "http://www.w3.org/TR/2001/REC-SVG-20010904/DTD/svg10.dtd">
<svg version="1.0" xmlns="http://www.w3.org/2000/svg"
 width="1520.000000pt" height="1520.000000pt" viewBox="0 0 1520.000000 1520.000000"
 preserveAspectRatio="xMidYMid meet">
<metadata>
Created by potrace 1.14, written by Peter Selinger 2001-2017
</metadata>
<g transform="translate(0.000000,1520.000000) scale(0.100000,-0.100000)"
fill="#000000" stroke="none">
<path d="M15020 10381 c-49 -19 -66 -26 -120 -46 -19 -7 -60 -22 -90 -33 -30
-11 -86 -31 -125 -45 -38 -14 -119 -44 -180 -67 -60 -23 -117 -43 -125 -45 -8
-2 -32 -11 -52 -19 -21 -9 -41 -17 -45 -17 -5 -1 -19 -6 -33 -11 -39 -15 -104
-39 -115 -42 -5 -2 -17 -6 -25 -9 -77 -31 -246 -90 -257 -90 -7 0 -13 -4 -13
-9 0 -4 -5 -8 -11 -8 -12 0 -332 -115 -364 -130 -11 -6 -33 -14 -50 -19 -16
-5 -136 -48 -265 -96 -129 -47 -243 -88 -253 -90 -9 -2 -21 -6 -26 -10 -5 -3
-47 -19 -93 -36 -46 -17 -130 -48 -188 -69 -245 -89 -304 -111 -480 -174 -185
-67 -247 -90 -285 -108 -12 -5 -27 -10 -35 -12 -14 -3 -24 -6 -67 -23 -10 -3
-20 -7 -23 -8 -9 -3 -44 -17 -65 -25 -43 -17 -332 -119 -355 -126 -14 -4 -27
-9 -30 -13 -3 -3 -45 -20 -95 -36 -49 -17 -92 -32 -95 -35 -3 -3 -9 -6 -15 -7
-11 -2 -119 -41 -325 -118 -69 -25 -132 -47 -141 -49 -8 -2 -33 -12 -55 -21
-21 -9 -43 -18 -49 -19 -5 -1 -27 -10 -49 -19 -21 -9 -46 -17 -56 -17 -9 0
-20 -3 -24 -7 -4 -5 -11 -8 -14 -9 -4 0 -14 -4 -22 -7 -26 -11 -155 -59 -165
-61 -5 -2 -21 -7 -35 -13 -14 -6 -135 -50 -269 -99 l-245 -89 2734 -3 c1503
-1 2736 1 2739 4 7 7 8 2004 1 2003 -3 0 -25 -9 -50 -18z"/>
<path d="M78 8392 l-78 -3 0 -1759 0 -1760 348 0 347 0 0 754 -1 754 518 -1
518 -2 1 25 c3 126 0 633 -5 637 -3 3 -236 6 -518 7 l-513 1 -1 330 c0 182 1
335 4 342 3 9 170 12 675 12 370 0 684 0 700 1 l27 0 0 330 c0 257 -3 330 -12
330 -75 3 -1953 4 -2010 2z"/>
<path d="M8607 8034 c-4 -4 -33 -15 -64 -26 -32 -10 -67 -23 -78 -28 -21 -10
-182 -70 -200 -74 -14 -4 -30 -10 -195 -73 l-75 -28 1 -1090 c1 -1075 3 -1169
23 -1273 49 -250 150 -394 344 -492 42 -22 78 -39 80 -38 1 1 29 -5 62 -15 77
-21 105 -26 185 -34 139 -15 493 -3 513 16 4 4 6 138 5 297 -3 248 -5 289 -18
286 -33 -8 -257 -8 -304 -1 -66 10 -127 30 -144 46 -8 7 -22 17 -31 23 -22 11
-52 72 -59 115 -2 16 -5 274 -5 573 -2 536 -2 542 18 543 139 4 425 2 425 -2
0 -4 15 -3 34 1 19 4 46 5 60 3 l26 -5 0 314 0 313 -267 0 c-148 -1 -275 1
-284 3 -14 3 -16 39 -15 325 0 280 -2 322 -15 325 -8 1 -18 0 -22 -4z"/>
<path d="M3438 7456 c-1 -2 -39 -6 -83 -10 -79 -6 -91 -7 -172 -20 -73 -12
-219 -63 -316 -111 -194 -95 -398 -277 -518 -460 -119 -182 -187 -380 -203
-594 -1 -20 -6 -42 -9 -49 -4 -6 -3 -13 3 -17 6 -4 8 -11 4 -16 -10 -17 -2
-214 12 -282 2 -12 7 -38 10 -57 3 -19 15 -66 26 -105 12 -38 23 -76 24 -82 1
-7 21 -50 43 -96 23 -46 41 -89 41 -95 0 -7 4 -12 8 -12 5 0 15 -12 23 -27 8
-16 17 -32 22 -38 4 -5 26 -35 49 -65 59 -78 201 -218 283 -278 114 -85 332
-184 455 -208 135 -25 210 -31 355 -29 88 2 176 6 195 10 19 3 44 8 55 10 11
2 27 6 35 9 8 3 29 8 45 11 43 9 45 9 100 29 362 130 670 444 799 814 14 40
28 87 31 105 4 18 11 52 16 76 27 122 29 380 4 501 -3 14 -7 36 -10 50 -8 44
-42 157 -54 179 -7 11 -10 21 -7 21 9 0 -67 145 -111 215 -73 113 -184 238
-288 325 -103 85 -298 194 -396 220 -24 7 -50 17 -56 22 -7 6 -13 8 -13 5 0
-3 -15 -1 -32 4 -18 5 -49 12 -68 15 -19 3 -42 7 -50 10 -8 3 -62 8 -120 10
-58 3 -110 7 -117 9 -6 2 -13 2 -15 1z m157 -642 c79 -11 191 -57 260 -104 48
-33 130 -113 165 -159 45 -60 98 -175 116 -253 3 -13 8 -76 10 -141 9 -260
-80 -449 -281 -596 -115 -85 -250 -125 -415 -124 -57 0 -149 12 -163 20 -4 2
-19 6 -33 9 -27 5 -134 53 -168 76 -160 106 -268 284 -292 483 -8 64 -7 195 2
236 3 13 7 36 10 50 3 15 14 51 25 80 11 30 23 62 26 72 3 9 9 17 14 17 5 0 9
7 9 15 0 13 74 112 109 145 35 33 99 80 110 80 6 0 11 4 11 9 0 8 115 59 150
66 8 2 15 4 15 5 0 3 38 10 90 16 28 3 51 7 52 8 4 4 138 -4 178 -10z"/>
<path d="M6427 7453 c-2 -1 -28 -5 -58 -7 -30 -3 -67 -10 -82 -15 -15 -6 -31
-10 -35 -10 -4 1 -9 0 -12 -1 -3 -1 -12 -3 -20 -5 -38 -7 -160 -62 -210 -93
-52 -34 -190 -161 -190 -176 0 -4 -7 -14 -15 -22 -13 -13 -15 2 -17 123 l-3
138 -310 1 c-170 0 -315 -2 -321 -4 -8 -2 -11 -344 -11 -1258 l0 -1254 323 0
324 0 1 723 c0 397 2 738 4 758 4 31 18 99 29 134 2 6 7 24 11 40 14 51 66
127 124 184 98 95 233 141 396 135 101 -3 112 -5 173 -23 90 -26 185 -96 230
-170 57 -92 74 -162 77 -323 2 -81 6 -152 10 -158 3 -5 2 -10 -2 -10 -5 0 -8
-15 -6 -32 2 -18 4 -40 3 -48 0 -8 0 -28 1 -45 1 -16 0 -37 0 -45 -1 -8 -1
-33 -1 -55 0 -22 0 -44 0 -50 0 -5 -1 -49 -2 -96 0 -47 2 -91 6 -97 4 -7 3
-12 -1 -12 -10 0 -9 -53 2 -69 3 -6 2 -11 -2 -11 -10 0 -9 -53 2 -69 3 -6 2
-11 -2 -11 -5 0 -8 -15 -6 -32 2 -18 4 -40 3 -48 0 -8 0 -28 1 -45 1 -16 0
-37 0 -45 -1 -8 -1 -33 -1 -55 0 -22 0 -44 0 -50 0 -5 -1 -49 -2 -96 0 -47 2
-91 6 -97 4 -7 3 -12 -1 -12 -5 0 -8 -15 -6 -32 6 -49 6 -52 3 -63 -1 -5 -2
-25 -1 -42 l1 -33 319 0 c246 0 320 3 323 13 8 20 2 1667 -6 1719 -12 85 -33
172 -56 233 -12 33 -24 69 -27 80 -4 11 -9 22 -12 25 -3 3 -14 21 -23 40 -41
84 -70 121 -179 229 -124 124 -258 192 -454 231 -51 11 -291 21 -298 13z"/>
<path d="M10647 7454 c-1 -1 -24 -5 -52 -8 -55 -8 -88 -13 -122 -21 -13 -3
-33 -7 -44 -10 -12 -2 -47 -12 -78 -21 -31 -10 -61 -18 -67 -20 -48 -9 -251
-124 -331 -187 -41 -32 -193 -189 -230 -237 -135 -178 -220 -387 -251 -620 -9
-71 -9 -329 0 -400 24 -180 48 -259 125 -415 58 -117 92 -175 104 -175 5 0 9
-7 9 -15 0 -30 302 -315 334 -315 3 0 28 -14 55 -30 63 -39 221 -103 292 -119
30 -7 61 -15 69 -18 23 -9 50 -13 205 -30 113 -13 339 -7 435 11 14 3 41 7 60
10 19 3 67 15 105 27 39 12 75 22 80 24 20 4 72 27 148 65 148 75 300 205 409
352 l28 36 -66 41 c-36 23 -68 41 -71 41 -3 0 -39 20 -80 45 -40 25 -78 45
-83 45 -6 0 -10 5 -10 10 0 6 -5 10 -12 10 -6 0 -32 13 -57 29 -25 16 -67 40
-94 54 l-47 25 -63 -62 c-54 -55 -174 -134 -210 -140 -6 -1 -16 -4 -22 -8 -5
-3 -23 -9 -40 -12 -16 -3 -41 -9 -55 -13 -52 -13 -305 -12 -370 2 -36 7 -66
14 -67 15 -3 1 -17 5 -68 21 -38 12 -107 46 -150 75 -39 27 -125 118 -137 146
-7 15 -16 28 -19 28 -3 0 -14 19 -24 43 -9 23 -24 54 -32 70 -8 15 -12 27 -9
27 3 0 2 10 -3 23 l-9 24 940 -1 c613 -1 946 2 954 9 24 18 36 268 21 415 -7
60 -18 126 -30 175 -3 11 -8 34 -12 50 -20 84 -92 248 -151 340 -108 169 -279
341 -419 421 -27 15 -52 31 -55 34 -16 18 -225 93 -297 106 -21 4 -47 8 -58
11 -60 12 -110 15 -236 17 -77 1 -141 1 -142 0z m278 -579 c55 -10 156 -49
212 -82 70 -41 164 -141 201 -214 37 -74 72 -177 66 -193 -3 -8 -182 -10 -635
-9 -348 1 -634 4 -636 6 -7 7 38 129 71 191 33 65 127 167 191 208 43 29 155
80 155 72 0 -3 6 -2 13 3 6 4 21 9 32 11 11 1 28 4 37 5 10 2 20 5 22 8 7 7
227 3 271 -6z"/>
</g>
</svg>
