<?xml version="1.0" standalone="no"?>
<!DOCTYPE svg PUBLIC "-//W3C//DTD SVG 20010904//EN"
 "http://www.w3.org/TR/2001/REC-SVG-20010904/DTD/svg10.dtd">
<svg version="1.0" xmlns="http://www.w3.org/2000/svg"
 width="700.000000pt" height="700.000000pt" viewBox="0 0 700.000000 700.000000"
 preserveAspectRatio="xMidYMid meet">
<metadata>
Created by potrace 1.14, written by Peter Selinger 2001-2017
</metadata>
<g transform="translate(0.000000,700.000000) scale(0.100000,-0.100000)"
fill="#000000" stroke="none">
<path d="M6390 4971 c-13 -8 -468 -176 -595 -221 -27 -9 -144 -52 -260 -94
-115 -43 -250 -93 -300 -111 -49 -18 -209 -76 -355 -130 -146 -53 -314 -115
-375 -137 -238 -86 -350 -76 860 -77 l1071 -1 -1 387 c0 337 -2 388 -15 390
-8 2 -22 -1 -30 -6z"/>
<path d="M549 4183 c-1 -23 -1 -1335 0 -1348 1 -7 51 -10 134 -10 l132 0 2
283 c1 156 4 289 6 295 3 9 62 12 203 11 l199 -1 0 129 0 128 -30 1 c-16 1
-108 1 -202 1 -153 1 -173 2 -173 17 -1 27 -1 205 -1 228 l1 23 273 2 272 3 1
128 2 127 -409 0 c-383 0 -409 -1 -410 -17z"/>
<path d="M3790 4016 l-115 -43 -2 -449 c-1 -328 1 -461 10 -494 43 -156 135
-211 350 -207 l112 2 0 115 0 115 -60 1 c-96 1 -103 3 -132 28 l-27 24 -1 226
c-1 149 3 226 10 227 5 0 51 2 100 3 50 2 95 3 100 4 7 1 11 45 10 120 l-1
117 -94 2 c-52 0 -102 2 -111 2 -13 1 -15 19 -15 123 0 70 -4 123 -9 124 -6 2
-62 -16 -125 -40z"/>
<path d="M3023 3829 c-68 -12 -141 -49 -178 -90 l-35 -39 0 53 0 54 -127 -1
-128 -1 0 -487 c0 -269 2 -489 5 -489 19 -5 232 -4 240 1 5 3 10 142 12 315 3
273 5 314 21 342 37 69 92 103 174 107 93 6 152 -24 189 -96 20 -38 21 -55 22
-337 0 -163 1 -305 1 -316 1 -20 7 -21 126 -20 l125 0 0 332 c0 208 -4 352
-11 385 -43 203 -226 323 -436 287z"/>
<path d="M4705 3833 c-137 -21 -214 -54 -296 -130 -108 -100 -159 -215 -164
-363 -5 -166 39 -284 145 -390 110 -111 227 -152 415 -146 116 3 188 23 266
72 44 27 129 112 129 127 0 10 -176 117 -193 117 -3 0 -20 -13 -38 -30 -45
-40 -109 -60 -193 -60 -87 1 -154 24 -201 69 -31 29 -65 87 -65 111 0 4 164 8
365 7 201 0 368 3 372 6 11 12 10 143 -3 210 -33 174 -177 336 -339 382 -49
14 -160 24 -200 18z m157 -242 c25 -10 56 -29 70 -42 26 -25 68 -99 68 -121 0
-11 -51 -13 -248 -13 l-248 -1 14 43 c18 54 80 117 135 137 61 21 156 20 209
-3z"/>
<path d="M1740 3808 c-204 -64 -345 -248 -354 -463 -5 -102 8 -174 44 -251 98
-204 307 -318 538 -292 302 34 507 331 437 633 -38 166 -169 313 -330 370 -77
28 -252 29 -335 3z m271 -243 c122 -63 177 -176 149 -308 -27 -130 -131 -211
-269 -209 -142 1 -251 115 -253 260 -1 120 44 201 142 252 60 32 173 34 231 5z"/>
</g>
</svg>
