<svg width="218" height="198" fill="none" xmlns="http://www.w3.org/2000/svg"><path opacity=".2" fill-rule="evenodd" clip-rule="evenodd" d="M38.638 44.307a5 5 0 011.83-6.83L90.261 8.728a5 5 0 016.83 1.83l10.078 17.455 46.155-26.648a5 5 0 016.83 1.83l12.378 21.439a46.874 46.874 0 012.71 5.492l42.063 72.855a5 5 0 01-1.83 6.83L65.404 196.455a5 5 0 01-6.83-1.83L9.263 109.216a4.985 4.985 0 01-.635-1.898l-7.205-12.48a5 5 0 011.83-6.83l45.462-26.247-10.077-17.454zm52.293-24.418l7.578 13.124L57.376 56.76l-7.578-13.124 41.133-23.748zm75.298 14.626c6.46 16.385.146 35.388-15.58 44.468l-14.178 8.185a5 5 0 005 8.66l14.178-8.185c12.49-7.212 20.33-19.337 22.484-32.509l28.011 48.517-141.41 81.644-28.514-49.387c12.752 5.231 27.7 4.695 40.59-2.747l14.177-8.186a5 5 0 10-5-8.66L71.81 124.5c-17.319 9.999-39.35 4.096-49.35-13.222l-9.877-17.11 141.411-81.643 4.705 8.15c.078.65.287 1.294.635 1.897l6.895 11.943zM87.786 86.692a5 5 0 00-1.83 6.83l8.185 14.177a5 5 0 006.83 1.83l17.109-9.878 3.185 5.517-17.109 9.878a5 5 0 005 8.66l6.389-3.689 1.693 2.932a5 5 0 108.66-5l-1.693-2.932 6.39-3.688a5.001 5.001 0 001.83-6.831l-8.185-14.177a5 5 0 00-6.83-1.83l-17.109 9.878-3.185-5.517 17.108-9.878a5 5 0 10-5-8.66l-6.389 3.689-1.693-2.932a5 5 0 10-8.66 5l1.693 2.932-6.39 3.689z" fill="#29282C"/></svg>